<svg width="30" height="30" viewBox="0 0 30 30" fill="none" xmlns="http://www.w3.org/2000/svg">
<path fill-rule="evenodd" clip-rule="evenodd" d="M30 15C30 18.9782 28.4196 22.7936 25.6066 25.6066C22.7936 28.4196 18.9782 30 15 30C11.0218 30 7.20644 28.4196 4.3934 25.6066C1.58035 22.7936 0 18.9782 0 15C0 11.0218 1.58035 7.20644 4.3934 4.3934C7.20644 1.58035 11.0218 0 15 0C18.9782 0 22.7936 1.58035 25.6066 4.3934C28.4196 7.20644 30 11.0218 30 15ZM15 7.5C14.763 7.50013 14.5287 7.54991 14.3121 7.64612C14.0955 7.74232 13.9015 7.88283 13.7425 8.05858C13.5835 8.23434 13.4631 8.44145 13.3891 8.66656C13.315 8.89168 13.2889 9.12981 13.3125 9.36562L13.9688 15.9412C13.9908 16.1996 14.109 16.4402 14.3 16.6156C14.4909 16.7909 14.7407 16.8882 15 16.8882C15.2593 16.8882 15.5091 16.7909 15.7 16.6156C15.891 16.4402 16.0092 16.1996 16.0312 15.9412L16.6875 9.36562C16.7111 9.12981 16.685 8.89168 16.6109 8.66656C16.5369 8.44145 16.4165 8.23434 16.2575 8.05858C16.0985 7.88283 15.9045 7.74232 15.6879 7.64612C15.4713 7.54991 15.237 7.50013 15 7.5ZM15.0037 18.75C14.5065 18.75 14.0296 18.9475 13.6779 19.2992C13.3263 19.6508 13.1287 20.1277 13.1287 20.625C13.1287 21.1223 13.3263 21.5992 13.6779 21.9508C14.0296 22.3025 14.5065 22.5 15.0037 22.5C15.501 22.5 15.9779 22.3025 16.3296 21.9508C16.6812 21.5992 16.8787 21.1223 16.8787 20.625C16.8787 20.1277 16.6812 19.6508 16.3296 19.2992C15.9779 18.9475 15.501 18.75 15.0037 18.75Z" fill="#A40000"/>
</svg>
