<svg width="23" height="28" viewBox="0 0 23 28" fill="none" xmlns="http://www.w3.org/2000/svg">
<g clip-path="url(#clip0_1303_8363)">
<path fill-rule="evenodd" clip-rule="evenodd" d="M21.212 3.46218H1.41414V24.2354H21.212V3.46218ZM1.41414 1.73108C1.03908 1.73108 0.679392 1.91346 0.414191 2.23811C0.148989 2.56275 0 3.00307 0 3.46218L0 24.2354C0 24.6946 0.148989 25.1349 0.414191 25.4595C0.679392 25.7842 1.03908 25.9665 1.41414 25.9665H21.212C21.5871 25.9665 21.9468 25.7842 22.212 25.4595C22.4772 25.1349 22.6262 24.6946 22.6262 24.2354V3.46218C22.6262 3.00307 22.4772 2.56275 22.212 2.23811C21.9468 1.91346 21.5871 1.73108 21.212 1.73108H1.41414Z" fill="#274C83"/>
<path fill-rule="evenodd" clip-rule="evenodd" d="M10.6059 24.2354V3.46216H12.0201V24.2354H10.6059ZM10.6059 10.3866H1.41406V8.65547H10.6059V10.3866ZM21.212 19.0421H12.0201V17.311H21.212V19.0421Z" fill="#274C83"/>
</g>
<defs>
<clipPath id="clip0_1303_8363">
<rect width="22.6262" height="27.6977" fill="white"/>
</clipPath>
</defs>
</svg>
