<svg width="27" height="30" viewBox="0 0 27 30" fill="none" xmlns="http://www.w3.org/2000/svg">
<g clip-path="url(#clip0_1303_8366)">
<path fill-rule="evenodd" clip-rule="evenodd" d="M1.66807 25.5573C1.66807 25.5573 0 25.5573 0 23.7318C0 21.9063 1.66807 16.4297 10.0084 16.4297C18.3487 16.4297 20.0168 21.9063 20.0168 23.7318C20.0168 25.5573 18.3487 25.5573 18.3487 25.5573H1.66807ZM10.0084 14.6042C11.3356 14.6042 12.6084 14.0272 13.5469 13.0001C14.4854 11.9731 15.0126 10.5801 15.0126 9.12758C15.0126 7.6751 14.4854 6.28211 13.5469 5.25506C12.6084 4.228 11.3356 3.651 10.0084 3.651C8.6812 3.651 7.40836 4.228 6.46989 5.25506C5.53142 6.28211 5.0042 7.6751 5.0042 9.12758C5.0042 10.5801 5.53142 11.9731 6.46989 13.0001C7.40836 14.0272 8.6812 14.6042 10.0084 14.6042ZM21.6849 17.3425C21.6849 17.1004 21.7727 16.8682 21.9291 16.697C22.0856 16.5259 22.2977 16.4297 22.5189 16.4297H25.855C26.0762 16.4297 26.2884 16.5259 26.4448 16.697C26.6012 16.8682 26.6891 17.1004 26.6891 17.3425C26.6891 17.5845 26.6012 17.8167 26.4448 17.9879C26.2884 18.1591 26.0762 18.2552 25.855 18.2552H22.5189C22.2977 18.2552 22.0856 18.1591 21.9291 17.9879C21.7727 17.8167 21.6849 17.5845 21.6849 17.3425ZM18.3487 11.8659C18.3487 11.6238 18.4366 11.3916 18.593 11.2205C18.7494 11.0493 18.9616 10.9531 19.1828 10.9531H25.855C26.0762 10.9531 26.2884 11.0493 26.4448 11.2205C26.6012 11.3916 26.6891 11.6238 26.6891 11.8659C26.6891 12.108 26.6012 12.3401 26.4448 12.5113C26.2884 12.6825 26.0762 12.7786 25.855 12.7786H19.1828C18.9616 12.7786 18.7494 12.6825 18.593 12.5113C18.4366 12.3401 18.3487 12.108 18.3487 11.8659ZM18.3487 6.38929C18.3487 6.14721 18.4366 5.91505 18.593 5.74387C18.7494 5.57269 18.9616 5.47653 19.1828 5.47653H25.855C26.0762 5.47653 26.2884 5.57269 26.4448 5.74387C26.6012 5.91505 26.6891 6.14721 26.6891 6.38929C26.6891 6.63137 26.6012 6.86354 26.4448 7.03471C26.2884 7.20589 26.0762 7.30206 25.855 7.30206H19.1828C18.9616 7.30206 18.7494 7.20589 18.593 7.03471C18.4366 6.86354 18.3487 6.63137 18.3487 6.38929ZM21.6849 22.819C21.6849 22.577 21.7727 22.3448 21.9291 22.1736C22.0856 22.0024 22.2977 21.9063 22.5189 21.9063H25.855C26.0762 21.9063 26.2884 22.0024 26.4448 22.1736C26.6012 22.3448 26.6891 22.577 26.6891 22.819C26.6891 23.0611 26.6012 23.2933 26.4448 23.4645C26.2884 23.6356 26.0762 23.7318 25.855 23.7318H22.5189C22.2977 23.7318 22.0856 23.6356 21.9291 23.4645C21.7727 23.2933 21.6849 23.0611 21.6849 22.819Z" fill="#274C83"/>
</g>
<defs>
<clipPath id="clip0_1303_8366">
<rect width="26.6891" height="29.2084" fill="white"/>
</clipPath>
</defs>
</svg>
